<svg width="3930" height="827" xmlns="http://www.w3.org/2000/svg" xmlns:xlink="http://www.w3.org/1999/xlink" overflow="hidden"><defs><filter id="fx0" x="-10%" y="-10%" width="120%" height="120%" filterUnits="userSpaceOnUse" primitiveUnits="userSpaceOnUse"><feComponentTransfer color-interpolation-filters="sRGB"><feFuncR type="discrete" tableValues="0 0"/><feFuncG type="discrete" tableValues="0 0"/><feFuncB type="discrete" tableValues="0 0"/><feFuncA type="linear" slope="0.4" intercept="0"/></feComponentTransfer><feGaussianBlur stdDeviation="6.11111 6.11111"/></filter><filter id="fx1" x="-10%" y="-10%" width="120%" height="120%" filterUnits="userSpaceOnUse" primitiveUnits="userSpaceOnUse"><feComponentTransfer color-interpolation-filters="sRGB"><feFuncR type="discrete" tableValues="0 0"/><feFuncG type="discrete" tableValues="0 0"/><feFuncB type="discrete" tableValues="0 0"/><feFuncA type="linear" slope="0.4" intercept="0"/></feComponentTransfer><feGaussianBlur stdDeviation="6.11111 6.11111"/></filter><filter id="fx2" x="-10%" y="-10%" width="120%" height="120%" filterUnits="userSpaceOnUse" primitiveUnits="userSpaceOnUse"><feComponentTransfer color-interpolation-filters="sRGB"><feFuncR type="discrete" tableValues="0 0"/><feFuncG type="discrete" tableValues="0 0"/><feFuncB type="discrete" tableValues="0 0"/><feFuncA type="linear" slope="0.4" intercept="0"/></feComponentTransfer><feGaussianBlur stdDeviation="6.11111 6.11111"/></filter><filter id="fx3" x="-10%" y="-10%" width="120%" height="120%" filterUnits="userSpaceOnUse" primitiveUnits="userSpaceOnUse"><feComponentTransfer color-interpolation-filters="sRGB"><feFuncR type="discrete" tableValues="0 0"/><feFuncG type="discrete" tableValues="0 0"/><feFuncB type="discrete" tableValues="0 0"/><feFuncA type="linear" slope="0.4" intercept="0"/></feComponentTransfer><feGaussianBlur stdDeviation="6.11111 6.11111"/></filter><filter id="fx4" x="-10%" y="-10%" width="120%" height="120%" filterUnits="userSpaceOnUse" primitiveUnits="userSpaceOnUse"><feComponentTransfer color-interpolation-filters="sRGB"><feFuncR type="discrete" tableValues="0 0"/><feFuncG type="discrete" tableValues="0 0"/><feFuncB type="discrete" tableValues="0 0"/><feFuncA type="linear" slope="0.4" intercept="0"/></feComponentTransfer><feGaussianBlur stdDeviation="6.11111 6.11111"/></filter><filter id="fx5" x="-10%" y="-10%" width="120%" height="120%" filterUnits="userSpaceOnUse" primitiveUnits="userSpaceOnUse"><feComponentTransfer color-interpolation-filters="sRGB"><feFuncR type="discrete" tableValues="0 0"/><feFuncG type="discrete" tableValues="0 0"/><feFuncB type="discrete" tableValues="0 0"/><feFuncA type="linear" slope="0.4" intercept="0"/></feComponentTransfer><feGaussianBlur stdDeviation="6.11111 6.11111"/></filter><filter id="fx6" x="-10%" y="-10%" width="120%" height="120%" filterUnits="userSpaceOnUse" primitiveUnits="userSpaceOnUse"><feComponentTransfer color-interpolation-filters="sRGB"><feFuncR type="discrete" tableValues="0 0"/><feFuncG type="discrete" tableValues="0 0"/><feFuncB type="discrete" tableValues="0 0"/><feFuncA type="linear" slope="0.4" intercept="0"/></feComponentTransfer><feGaussianBlur stdDeviation="6.11111 6.11111"/></filter><filter id="fx7" x="-10%" y="-10%" width="120%" height="120%" filterUnits="userSpaceOnUse" primitiveUnits="userSpaceOnUse"><feComponentTransfer color-interpolation-filters="sRGB"><feFuncR type="discrete" tableValues="0 0"/><feFuncG type="discrete" tableValues="0 0"/><feFuncB type="discrete" tableValues="0 0"/><feFuncA type="linear" slope="0.4" intercept="0"/></feComponentTransfer><feGaussianBlur stdDeviation="6.11111 6.11111"/></filter><filter id="fx8" x="-10%" y="-10%" width="120%" height="120%" filterUnits="userSpaceOnUse" primitiveUnits="userSpaceOnUse"><feComponentTransfer color-interpolation-filters="sRGB"><feFuncR type="discrete" tableValues="0 0"/><feFuncG type="discrete" tableValues="0 0"/><feFuncB type="discrete" tableValues="0 0"/><feFuncA type="linear" slope="0.4" intercept="0"/></feComponentTransfer><feGaussianBlur stdDeviation="6.11111 6.11111"/></filter><filter id="fx9" x="-10%" y="-10%" width="120%" height="120%" filterUnits="userSpaceOnUse" primitiveUnits="userSpaceOnUse"><feComponentTransfer color-interpolation-filters="sRGB"><feFuncR type="discrete" tableValues="0 0"/><feFuncG type="discrete" tableValues="0 0"/><feFuncB type="discrete" tableValues="0 0"/><feFuncA type="linear" slope="0.4" intercept="0"/></feComponentTransfer><feGaussianBlur stdDeviation="6.11111 6.11111"/></filter><clipPath id="clip10"><rect x="218" y="700" width="3930" height="827"/></clipPath><radialGradient cx="1.08481e+06" cy="1.12915e+06" r="1.56582e+06" gradientUnits="userSpaceOnUse" spreadMethod="pad" id="fill11" gradientTransform="matrix(0.000360892 0 0 0.000360892 3365 712)"><stop offset="0" stop-color="#EA8C8C"/><stop offset="0.5" stop-color="#F0BABA"/><stop offset="1" stop-color="#F7DEDE"/></radialGradient><radialGradient cx="1.08481e+06" cy="1.12915e+06" r="1.56582e+06" gradientUnits="userSpaceOnUse" spreadMethod="pad" id="fill12" gradientTransform="matrix(0.000360892 0 0 0.000360892 2573 712)"><stop offset="0" stop-color="#FFDE80"/><stop offset="0.5" stop-color="#FFE8B3"/><stop offset="1" stop-color="#FFF3DA"/></radialGradient><radialGradient cx="1.0862e+06" cy="1.12915e+06" r="1.56678e+06" gradientUnits="userSpaceOnUse" spreadMethod="pad" id="fill13" gradientTransform="matrix(0.000360892 0 0 0.000360892 1782 712)"><stop offset="0" stop-color="#8FDEA0"/><stop offset="0.5" stop-color="#BCE9C5"/><stop offset="1" stop-color="#DFF3E3"/></radialGradient><radialGradient cx="2.15715e+06" cy="1.14577e+06" r="2.44256e+06" fx="2.15715e+06" fy="1.14577e+06" gradientUnits="userSpaceOnUse" spreadMethod="pad" id="fill14" gradientTransform="matrix(0.000360892 0 0 0.000360892 218 700)"><stop offset="0" stop-color="#95ABEA"/><stop offset="0.5" stop-color="#BFCBF0"/><stop offset="1" stop-color="#E0E5F7"/></radialGradient><clipPath id="clip15"><path d="M1088 1018 1088 1388 1689 1388 1689 1018ZM218 700 4148 700 4148 1527 218 1527Z" fill-rule="evenodd" clip-rule="evenodd"/></clipPath><clipPath id="clip16"><rect x="-3" y="-3" width="661" height="431"/></clipPath><clipPath id="clip17"><rect x="0" y="0" width="655" height="424"/></clipPath><clipPath id="clip18"><rect x="39" y="25" width="186" height="103"/></clipPath><clipPath id="clip19"><rect x="0" y="0" width="257" height="175"/></clipPath><clipPath id="clip20"><path d="M291 1018 291 1388 892 1388 892 1018ZM218 700 4148 700 4148 1527 218 1527Z" fill-rule="evenodd" clip-rule="evenodd"/></clipPath><clipPath id="clip21"><rect x="-3" y="-3" width="661" height="431"/></clipPath><clipPath id="clip22"><rect x="0" y="0" width="655" height="424"/></clipPath><clipPath id="clip23"><rect x="39" y="25" width="464" height="179"/></clipPath><clipPath id="clip24"><rect x="0" y="0" width="548" height="252"/></clipPath><clipPath id="clip25"><path d="M2663 1018 2663 1388 3264 1388 3264 1018ZM218 700 4148 700 4148 1527 218 1527Z" fill-rule="evenodd" clip-rule="evenodd"/></clipPath><clipPath id="clip26"><rect x="-3" y="-3" width="661" height="431"/></clipPath><clipPath id="clip27"><rect x="0" y="0" width="655" height="424"/></clipPath><clipPath id="clip28"><rect x="39" y="25" width="223" height="93"/></clipPath><clipPath id="clip29"><rect x="0" y="0" width="298" height="175"/></clipPath><clipPath id="clip30"><path d="M1875 1018 1875 1388 2476 1388 2476 1018ZM218 700 4148 700 4148 1527 218 1527Z" fill-rule="evenodd" clip-rule="evenodd"/></clipPath><clipPath id="clip31"><rect x="-3" y="-3" width="661" height="431"/></clipPath><clipPath id="clip32"><rect x="0" y="0" width="655" height="424"/></clipPath><clipPath id="clip33"><rect x="39" y="25" width="137" height="93"/></clipPath><clipPath id="clip34"><rect x="0" y="0" width="212" height="175"/></clipPath><clipPath id="clip35"><path d="M3449 1019 3449 1389 4050 1389 4050 1019ZM218 700 4148 700 4148 1527 218 1527Z" fill-rule="evenodd" clip-rule="evenodd"/></clipPath><clipPath id="clip36"><rect x="-3" y="-3" width="661" height="431"/></clipPath><clipPath id="clip37"><rect x="0" y="0" width="655" height="424"/></clipPath><clipPath id="clip38"><rect x="39" y="25" width="168" height="93"/></clipPath><clipPath id="clip39"><rect x="0" y="0" width="241" height="175"/></clipPath></defs><g clip-path="url(#clip10)" transform="translate(-218 -700)"><path d="M3365 842.502C3365 770.428 3423.43 712 3495.5 712L4017.5 712C4089.57 712 4148 770.428 4148 842.502L4148 1396.5C4148 1468.57 4089.57 1527 4017.5 1527L3495.5 1527C3423.43 1527 3365 1468.57 3365 1396.5Z" fill="url(#fill11)" fill-rule="evenodd"/><path d="M2573 842.502C2573 770.428 2631.43 712 2703.5 712L3225.5 712C3297.57 712 3356 770.428 3356 842.502L3356 1396.5C3356 1468.57 3297.57 1527 3225.5 1527L2703.5 1527C2631.43 1527 2573 1468.57 2573 1396.5Z" fill="url(#fill12)" fill-rule="evenodd"/><path d="M1782 842.669C1782 770.502 1840.5 712 1912.67 712L2435.33 712C2507.5 712 2566 770.502 2566 842.669L2566 1396.33C2566 1468.5 2507.5 1527 2435.33 1527L1912.67 1527C1840.5 1527 1782 1468.5 1782 1396.33Z" fill="url(#fill13)" fill-rule="evenodd"/><path d="M218 837.836C218 761.711 279.711 700 355.836 700L1637.16 700C1713.29 700 1775 761.711 1775 837.836L1775 1389.16C1775 1465.29 1713.29 1527 1637.16 1527L355.836 1527C279.711 1527 218 1465.29 218 1389.16Z" fill="url(#fill14)" fill-rule="evenodd"/><g clip-path="url(#clip15)"><g clip-path="url(#clip16)" filter="url(#fx0)" transform="translate(1071 1001)"><g clip-path="url(#clip17)"><rect x="26.7227" y="26.7225" width="601" height="370" stroke="#000000" stroke-width="14" stroke-miterlimit="8" fill="#F2F2F2"/></g></g><g clip-path="url(#clip18)" filter="url(#fx1)" transform="translate(1269 1173)"><g clip-path="url(#clip19)"><path d="M4.608 0 4.608-46.016 11.392-46.016 11.392 0ZM17.7149-32.128 24.1149-32.128 24.1149-27.392C24.6209-29.0427 25.8717-30.3727 27.8674-31.382 29.8631-32.3913 32.0896-32.896 34.5469-32.896 38.8482-32.896 42.2062-31.5097 44.6209-28.737 47.0356-25.9643 48.2429-22.2093 48.2429-17.472L48.2429 0 41.7789 0 41.7789-17.152C41.7789-20.232 41.0351-22.6447 39.5474-24.39 38.0597-26.1353 35.9876-27.008 33.3309-27.008 30.5749-27.008 28.3606-26.0722 26.6879-24.2005 25.0152-22.3288 24.1789-19.8727 24.1789-16.832L24.1789 0 17.7149 0ZM59.1268 11.52 52.6628 11.52 52.6628-32.128 59.0628-32.128 59.0628-27.2C59.7115-28.8587 61.0837-30.212 63.1793-31.26 65.275-32.308 67.5082-32.832 69.8788-32.832 74.4215-32.832 78.2025-31.2668 81.2218-28.1365 84.2412-25.0062 85.7508-21.0247 85.7508-16.192 85.7508-11.2847 84.184-7.24183 81.0503-4.0635 77.9167-0.885167 74.0648 0.704 69.4948 0.704 67.2982 0.704 65.19 0.249 63.1703-0.661 61.1507-1.571 59.8028-2.80133 59.1268-4.352ZM69.3028-27.008C66.3688-27.008 63.9073-25.9532 61.9183-23.8435 59.9293-21.7338 58.9348-19.098 58.9348-15.936 58.9348-12.7887 59.911-10.1885 61.8633-8.1355 63.8157-6.0825 66.2315-5.056 69.1108-5.056 72.0735-5.056 74.4888-6.0505 76.3568-8.0395 78.2248-10.0285 79.1588-12.7033 79.1588-16.064 79.1588-19.344 78.2452-21.988 76.4178-23.996 74.5905-26.004 72.2188-27.008 69.3028-27.008ZM119.537 0 113.073 0 113.073-4.736C112.545-3.03067 111.298-1.69767 109.332-0.737 107.366 0.223667 105.136 0.704 102.641 0.704 98.3848 0.704 95.038-0.682167 92.601-3.4545 90.164-6.22683 88.9455-9.982 88.9455-14.72L88.9455-32.128 95.4735-32.128 95.4735-15.04C95.4735-11.918 96.2175-9.48417 97.7055-7.7385 99.1935-5.99283 101.265-5.12 103.921-5.12 106.621-5.12 108.81-6.05983 110.49-7.9395 112.17-9.81917 113.009-12.2927 113.009-15.36L113.009-32.128 119.537-32.128ZM126.005-8.896 126.005-26.304 121.781-26.304 121.781-32.128 126.005-32.128 126.005-41.6 132.469-41.6 132.469-32.128 139.637-32.128 139.637-26.304 132.469-26.304 132.469-9.344C132.469-8.10867 132.719-7.22383 133.219-6.6895 133.719-6.15517 134.514-5.888 135.605-5.888L139.637-5.888 139.637 0 134.837 0C131.797 0 129.565-0.7235 128.141-2.1705 126.717-3.6175 126.005-5.85933 126.005-8.896Z" transform="matrix(1 0 0 1 58.9231 94)"/></g></g></g><rect x="1088" y="1018" width="601" height="370" stroke="#000000" stroke-width="13.75" stroke-miterlimit="8" fill="#F2F2F2"/><text font-family="IntelOne Display AR Regular,IntelOne Display AR Regular_MSFontService,sans-serif" font-weight="700" font-size="64" transform="matrix(1 0 0 1 1318.2 1257)">Input</text><rect x="1087" y="1017" width="601" height="93.9998" stroke="#000000" stroke-width="10.3125" stroke-miterlimit="8" fill="#595959"/><text fill="#FFFFFF" font-family="IntelOne Display AR Regular,IntelOne Display AR Regular_MSFontService,sans-serif" font-weight="700" font-size="64" transform="matrix(1 0 0 1 1297.85 1087)">Dense</text><g clip-path="url(#clip20)"><g clip-path="url(#clip21)" filter="url(#fx2)" transform="translate(274 1001)"><g clip-path="url(#clip22)"><rect x="26.7229" y="26.7225" width="601" height="370" stroke="#000000" stroke-width="14" stroke-miterlimit="8" fill="#F2F2F2"/></g></g><g clip-path="url(#clip23)" filter="url(#fx3)" transform="translate(333 1135)"><g clip-path="url(#clip24)"><path d="M29.44-19.071 42.176 0 34.654 0 22.558-18.24 10.944-18.24 10.944 0 4.16 0 4.16-46.016 24.512-46.016C29.7047-46.016 33.7762-44.7978 36.7265-42.3615 39.6768-39.9252 41.152-36.5993 41.152-32.384 41.152-28.8947 40.0755-25.9613 37.9225-23.584 35.7695-21.2067 32.942-19.7023 29.44-19.071ZM34.304-32.256C34.304-34.6453 33.4433-36.5227 31.722-37.888 30.0007-39.2533 27.5547-39.936 24.384-39.936L10.944-39.936 10.944-24.256 23.936-24.256C27.1473-24.256 29.6782-24.9823 31.5285-26.435 33.3788-27.8877 34.304-29.828 34.304-32.256ZM73.0549 0 66.7189 0 66.7189-5.056C66.1922-3.35333 64.8257-1.97833 62.6194-0.931 60.4131 0.116333 58.0462 0.64 55.5189 0.64 51.9476 0.64 49.0281-0.278333 46.7604-2.115 44.4927-3.95167 43.3589-6.38267 43.3589-9.408 43.3589-12.7153 44.6249-15.2168 47.1569-16.9125 49.6889-18.6082 53.3722-19.456 58.2069-19.456L66.6549-19.456C66.6142-21.7993 65.9167-23.6972 64.5624-25.1495 63.2081-26.6018 61.2602-27.328 58.7189-27.328 57.1869-27.328 55.6699-27.0032 54.1679-26.3535 52.6659-25.7038 51.0002-24.642 49.1709-23.168L45.8549-27.295C47.8169-29.2983 49.9052-30.754 52.1199-31.662 54.3346-32.57 56.7049-33.024 59.2309-33.024 63.5622-33.024 66.9491-31.7357 69.3914-29.159 71.8337-26.5823 73.0549-23.0707 73.0549-18.624ZM66.6549-14.208 58.2709-14.208C55.2696-14.208 53.1006-13.8262 51.7639-13.0625 50.4272-12.2988 49.7589-11.1233 49.7589-9.536 49.7589-8.16867 50.3412-7.02683 51.5059-6.1105 52.6706-5.19417 54.2002-4.736 56.0949-4.736 58.9882-4.736 61.4307-5.6715 63.4224-7.5425 65.4141-9.4135 66.4916-11.6353 66.6549-14.208ZM77.8712-32.128 84.2712-32.128 84.2712-27.392C84.7772-29.0427 86.028-30.3727 88.0237-31.382 90.0193-32.3913 92.2458-32.896 94.7032-32.896 99.0045-32.896 102.362-31.5097 104.777-28.737 107.192-25.9643 108.399-22.2093 108.399-17.472L108.399 0 101.935 0 101.935-17.152C101.935-20.232 101.191-22.6447 99.7037-24.39 98.216-26.1353 96.1438-27.008 93.4872-27.008 90.7312-27.008 88.5168-26.0722 86.8442-24.2005 85.1715-22.3288 84.3352-19.8727 84.3352-16.832L84.3352 0 77.8712 0ZM138.035-46.016 144.563-46.016 144.563 0 138.099 0 138.099-4.992C137.39-3.28267 136.002-1.91667 133.935-0.894 131.867 0.128667 129.65 0.64 127.283 0.64 122.79 0.64 119.022-0.9265 115.978-4.0595 112.933-7.1925 111.411-11.1727 111.411-16 111.411-20.834 112.974-24.8585 116.101-28.0735 119.227-31.2885 123.082-32.896 127.667-32.896 129.896-32.896 132.003-32.4387 133.989-31.524 135.975-30.6093 137.324-29.4027 138.035-27.904ZM127.859-5.12C130.779-5.12 133.237-6.1785 135.233-8.2955 137.229-10.4125 138.227-13.0447 138.227-16.192 138.227-19.3473 137.263-21.9495 135.334-23.9985 133.405-26.0475 130.999-27.072 128.115-27.072 125.139-27.072 122.71-26.0705 120.827-24.0675 118.944-22.0645 118.003-19.418 118.003-16.128 118.003-12.8067 118.927-10.1417 120.775-8.133 122.623-6.12433 124.984-5.12 127.859-5.12ZM181.55-16.064C181.55-11.234 179.931-7.18917 176.693-3.9295 173.456-0.669833 169.464 0.96 164.718 0.96 159.97 0.96 156.009-0.659667 152.837-3.899 149.664-7.13833 148.078-11.172 148.078-16 148.078-20.8 149.693-24.8267 152.925-28.08 156.156-31.3333 160.151-32.96 164.91-32.96 169.658-32.96 173.618-31.3403 176.791-28.101 179.963-24.8617 181.55-20.8493 181.55-16.064ZM154.67-16C154.67-12.806 155.647-10.1408 157.602-8.0045 159.557-5.86817 161.972-4.8 164.846-4.8 167.67-4.8 170.062-5.87 172.02-8.01 173.979-10.15 174.958-12.8347 174.958-16.064 174.958-19.1727 173.97-21.8058 171.993-23.9635 170.017-26.1212 167.613-27.2 164.782-27.2 161.944-27.2 159.549-26.1335 157.597-24.0005 155.646-21.8675 154.67-19.2007 154.67-16ZM185.007-32.128 191.407-32.128 191.407-28.48C191.835-29.836 192.831-30.911 194.397-31.705 195.962-32.499 197.717-32.896 199.663-32.896 201.907-32.896 203.912-32.4202 205.679-31.4685 207.446-30.5168 208.674-29.2647 209.364-27.712 210.18-29.2747 211.524-30.5293 213.395-31.476 215.265-32.4227 217.365-32.896 219.695-32.896 223.519-32.896 226.565-31.6602 228.835-29.1885 231.104-26.7168 232.239-23.5367 232.239-19.648L232.239 0 225.711 0 225.711-19.328C225.711-21.7647 225.118-23.6538 223.932-24.9955 222.746-26.3372 221.077-27.008 218.927-27.008 216.811-27.008 215.098-26.2747 213.788-24.808 212.478-23.3413 211.823-21.408 211.823-19.008L211.823 0 205.359 0 205.359-19.328C205.359-21.7647 204.766-23.6538 203.58-24.9955 202.394-26.3372 200.725-27.008 198.575-27.008 196.459-27.008 194.746-26.2747 193.436-24.808 192.126-23.3413 191.471-21.408 191.471-19.008L191.471 0 185.007 0Z" transform="matrix(1 0 0 1 58.4333 93)"/><path d="M4.16 0 4.16-46.016 24.192-46.016C29.3333-46.016 33.3387-44.94 36.208-42.788 39.0773-40.636 40.512-37.5947 40.512-33.664 40.512-31.1333 39.8558-28.9517 38.5435-27.119 37.2312-25.2863 35.4127-24.0997 33.088-23.559 35.6967-23.1117 37.7355-21.95 39.2045-20.074 40.6735-18.198 41.408-15.816 41.408-12.928 41.408-9.05067 39.9097-5.92667 36.913-3.556 33.9163-1.18533 29.996 0 25.152 0ZM33.728-33.408C33.728-35.5267 32.9248-37.1443 31.3185-38.261 29.7122-39.3777 27.294-39.936 24.064-39.936L11.008-39.936 11.008-26.24 24.896-26.24C27.506-26.24 29.6305-26.9115 31.2695-28.2545 32.9085-29.5975 33.728-31.3153 33.728-33.408ZM34.624-12.992C34.624-15.182 33.8787-16.9242 32.388-18.2185 30.8973-19.5128 28.848-20.16 26.24-20.16L11.008-20.16 11.008-6.08 25.536-6.08C28.322-6.08 30.5332-6.71083 32.1695-7.9725 33.8058-9.23417 34.624-10.9073 34.624-12.992ZM45.5349-42.496 52.5749-42.496 52.5749-35.584 45.5349-35.584ZM45.7909 0 45.7909-32.128 52.3189-32.128 52.3189 0ZM58.392-32.128 64.792-32.128 64.792-27.392C65.298-29.0427 66.5488-30.3727 68.5445-31.382 70.5402-32.3913 72.7667-32.896 75.224-32.896 79.5253-32.896 82.8833-31.5097 85.298-28.737 87.7127-25.9643 88.92-22.2093 88.92-17.472L88.92 0 82.456 0 82.456-17.152C82.456-20.232 81.7122-22.6447 80.2245-24.39 78.7368-26.1353 76.6647-27.008 74.008-27.008 71.252-27.008 69.0377-26.0722 67.365-24.2005 65.6923-22.3288 64.856-19.8727 64.856-16.832L64.856 0 58.392 0ZM121.18 0 114.844 0 114.844-5.056C114.317-3.35333 112.951-1.97833 110.744-0.931 108.538 0.116333 106.171 0.64 103.644 0.64 100.073 0.64 97.1531-0.278333 94.8854-2.115 92.6177-3.95167 91.4839-6.38267 91.4839-9.408 91.4839-12.7153 92.7499-15.2168 95.2819-16.9125 97.8139-18.6082 101.497-19.456 106.332-19.456L114.78-19.456C114.739-21.7993 114.042-23.6972 112.687-25.1495 111.333-26.6018 109.385-27.328 106.844-27.328 105.312-27.328 103.795-27.0032 102.293-26.3535 100.791-25.7038 99.1252-24.642 97.2959-23.168L93.9799-27.295C95.9419-29.2983 98.0302-30.754 100.245-31.662 102.46-32.57 104.83-33.024 107.356-33.024 111.687-33.024 115.074-31.7357 117.516-29.159 119.959-26.5823 121.18-23.0707 121.18-18.624ZM114.78-14.208 106.396-14.208C103.395-14.208 101.226-13.8262 99.8889-13.0625 98.5522-12.2988 97.8839-11.1233 97.8839-9.536 97.8839-8.16867 98.4662-7.02683 99.6309-6.1105 100.796-5.19417 102.325-4.736 104.22-4.736 107.113-4.736 109.556-5.6715 111.547-7.5425 113.539-9.4135 114.617-11.6353 114.78-14.208ZM125.996-32.128 132.396-32.128 132.396-28.288C132.607-29.5193 133.51-30.4992 135.103-31.2275 136.696-31.9558 138.567-32.32 140.716-32.32L144.172-32.32 144.172-26.176 140.652-26.176C137.893-26.176 135.838-25.471 134.487-24.061 133.136-22.651 132.46-20.476 132.46-17.536L132.46 0 125.996 0ZM157.117-0.89 144.061-32.128 150.841-32.128 160.376-7.616 169.911-32.128 176.445-32.128 158.236 11.52 151.805 11.52Z" transform="matrix(1 0 0 1 303.069 93)"/><path d="M33.792-13.248C33.792-15.5993 32.8513-17.3293 30.97-18.438 29.0887-19.5467 25.946-20.164 21.542-20.29 15.3173-20.5933 10.7682-21.7215 7.8945-23.6745 5.02083-25.6275 3.584-28.6587 3.584-32.768 3.584-36.7807 5.28233-40.1412 8.679-42.8495 12.0757-45.5578 16.3293-46.912 21.44-46.912 25.1487-46.912 28.5023-46.2727 31.501-44.994 34.4997-43.7153 37.1833-41.6533 39.552-38.808L35.441-34.56C33.401-36.636 31.2052-38.1897 28.8535-39.221 26.5018-40.2523 24.0307-40.768 21.44-40.768 18.17-40.768 15.4965-40.029 13.4195-38.551 11.3425-37.073 10.304-35.2947 10.304-33.216 10.304-30.996 11.2218-29.3827 13.0575-28.376 14.8932-27.3693 17.9713-26.8037 22.292-26.679 28.5347-26.417 33.132-25.2462 36.084-23.1665 39.036-21.0868 40.512-17.93 40.512-13.696 40.512-9.476 38.7573-5.989 35.248-3.235 31.7387-0.481 27.2853 0.896 21.888 0.896 17.5233 0.896 13.7528 0.195 10.5765-1.207 7.40017-2.609 4.536-4.98167 1.984-8.325L6.03-12.608C8.46733-9.96733 10.922-8.0805 13.394-6.9475 15.866-5.8145 18.6973-5.248 21.888-5.248 25.4133-5.248 28.2787-6.01983 30.484-7.5635 32.6893-9.10717 33.792-11.002 33.792-13.248ZM51.106 11.52 44.642 11.52 44.642-32.128 51.042-32.128 51.042-27.2C51.6907-28.8587 53.0628-30.212 55.1585-31.26 57.2542-32.308 59.4873-32.832 61.858-32.832 66.4007-32.832 70.1817-31.2668 73.201-28.1365 76.2203-25.0062 77.73-21.0247 77.73-16.192 77.73-11.2847 76.1632-7.24183 73.0295-4.0635 69.8958-0.885167 66.044 0.704 61.474 0.704 59.2773 0.704 57.1692 0.249 55.1495-0.661 53.1298-1.571 51.782-2.80133 51.106-4.352ZM61.282-27.008C58.348-27.008 55.8865-25.9532 53.8975-23.8435 51.9085-21.7338 50.914-19.098 50.914-15.936 50.914-12.7887 51.8902-10.1885 53.8425-8.1355 55.7948-6.0825 58.2107-5.056 61.09-5.056 64.0527-5.056 66.468-6.0505 68.336-8.0395 70.204-10.0285 71.138-12.7033 71.138-16.064 71.138-19.344 70.2243-21.988 68.397-23.996 66.5697-26.004 64.198-27.008 61.282-27.008ZM81.6287-42.496 88.6687-42.496 88.6687-35.584 81.6287-35.584ZM81.8847 0 81.8847-32.128 88.4127-32.128 88.4127 0ZM94.4857-46.016 100.95-46.016 100.95-19.072 114.513-32.128 122.326-32.128 122.326-31.128 105.75-16.783 122.39-0.989 122.39 0 114.57 0 100.95-14.336 100.95 0 94.4857 0ZM139.829-4.672C141.767-4.672 143.554-5.08667 145.192-5.916 146.83-6.74533 148.495-8.12267 150.187-10.048L154.037-6.579C152.132-3.89767 149.963-1.97083 147.529-0.7985 145.095 0.373833 142.379 0.96 139.381 0.96 134.547 0.96 130.587-0.628 127.5-3.804 124.413-6.98 122.869-11.0453 122.869-16 122.869-20.7913 124.443-24.8052 127.591-28.0415 130.739-31.2778 134.626-32.896 139.253-32.896 143.968-32.896 147.792-31.3627 150.725-28.296 153.659-25.2293 155.125-21.2587 155.125-16.384 155.125-16.2933 155.112-16.0323 155.085-15.601 155.058-15.1697 154.978-14.492 154.846-13.568L129.525-13.568C129.845-11.1393 130.96-9.0495 132.872-7.2985 134.784-5.5475 137.103-4.672 139.829-4.672ZM139.317-27.264C136.799-27.264 134.637-26.4413 132.831-24.796 131.025-23.1507 129.923-21.1573 129.525-18.816L148.597-18.816C148.233-21.2087 147.211-23.2148 145.531-24.8345 143.851-26.4542 141.78-27.264 139.317-27.264ZM184.828-9.664C184.828-6.54467 183.521-4.0155 180.905-2.0765 178.29-0.1375 174.926 0.832 170.812 0.832 168.118 0.832 165.597 0.404167 163.249-0.4515 160.902-1.30717 158.708-2.71633 156.668-4.679L159.854-9.408C162.15-7.67733 164.112-6.466 165.74-5.774 167.368-5.082 169.102-4.736 170.94-4.736 173.276-4.736 175.13-5.17033 176.5-6.039 177.871-6.90767 178.556-8.00933 178.556-9.344 178.556-10.664 177.992-11.6345 176.863-12.2555 175.734-12.8765 173.75-13.2073 170.91-13.248 166.463-13.424 163.18-14.2638 161.062-15.7675 158.944-17.2712 157.884-19.6313 157.884-22.848 157.884-25.7513 159.092-28.1625 161.507-30.0815 163.923-32.0005 167.003-32.96 170.748-32.96 173.254-32.96 175.611-32.5623 177.82-31.767 180.029-30.9717 182.109-29.6927 184.06-27.93L181.071-23.296C179.004-24.7547 177.192-25.7913 175.634-26.406 174.076-27.0207 172.426-27.328 170.684-27.328 168.728-27.328 167.151-26.9097 165.953-26.073 164.755-25.2363 164.156-24.2467 164.156-23.104 164.156-21.8147 164.68-20.8708 165.727-20.2725 166.775-19.6742 168.552-19.3133 171.06-19.19 175.823-19.0587 179.308-18.2417 181.516-16.739 183.724-15.2363 184.828-12.878 184.828-9.664Z" transform="matrix(1 0 0 1 175.881 170)"/></g></g></g><rect x="291" y="1018" width="601" height="370" stroke="#000000" stroke-width="13.75" stroke-miterlimit="8" fill="#F2F2F2"/><text font-family="IntelOne Display AR Regular,IntelOne Display AR Regular_MSFontService,sans-serif" font-weight="700" font-size="64" transform="matrix(1 0 0 1 381.711 1218)">Random <tspan font-size="64" x="244.635" y="0">Binary </tspan><tspan font-size="64" x="117.448" y="77">Spikes</tspan></text><rect x="861" y="1202" width="65" height="58.9998" fill="#7030A0"/><rect x="292" y="1017" width="600" height="93.9998" stroke="#000000" stroke-width="10.3125" stroke-miterlimit="8" fill="#595959"/><text fill="#FFFFFF" font-family="IntelOne Display AR Regular,IntelOne Display AR Regular_MSFontService,sans-serif" font-weight="700" font-size="64" transform="matrix(1 0 0 1 489.783 1087)">SpikeIn</text><path d="M1.42843e-05-5.15625 104.492-5.15596 104.492 5.15654-1.42843e-05 5.15625ZM99.3353-15.4685 130.273 0.000360892 99.3352 15.469Z" fill="#00B050" transform="matrix(1 0 0 -1 926 1231)"/><rect x="1056" y="1202" width="65" height="58.9998" fill="#00B050"/><g clip-path="url(#clip25)"><g clip-path="url(#clip26)" filter="url(#fx4)" transform="translate(2646 1001)"><g clip-path="url(#clip27)"><rect x="26.7227" y="26.7225" width="601" height="370" stroke="#000000" stroke-width="14" stroke-miterlimit="8" fill="#F2F2F2"/></g></g><g clip-path="url(#clip28)" filter="url(#fx5)" transform="translate(2824 1173)"><g clip-path="url(#clip29)"><path d="M4.16 0 4.16-46.016 24.256-46.016C29.3247-46.016 33.3438-44.7322 36.3135-42.1645 39.2832-39.5968 40.768-36.1447 40.768-31.808 40.768-27.3827 39.1638-23.8443 35.9555-21.193 32.7472-18.5417 28.506-17.216 23.232-17.216L10.944-17.216 10.944 0ZM33.856-31.68C33.856-34.2087 33.0047-36.1955 31.302-37.6405 29.5993-39.0855 27.1867-39.808 24.064-39.808L10.944-39.808 10.944-23.36 23.616-23.36C26.7813-23.36 29.2793-24.1063 31.11-25.599 32.9407-27.0917 33.856-29.1187 33.856-31.68ZM44.0722-46.016 50.6002-46.016 50.6002 0 44.0722 0ZM84.5132 0 78.1772 0 78.1772-5.056C77.6506-3.35333 76.2841-1.97833 74.0777-0.931 71.8714 0.116333 69.5046 0.64 66.9772 0.64 63.4059 0.64 60.4864-0.278333 58.2187-2.115 55.9511-3.95167 54.8172-6.38267 54.8172-9.408 54.8172-12.7153 56.0832-15.2168 58.6152-16.9125 61.1472-18.6082 64.8306-19.456 69.6652-19.456L78.1132-19.456C78.0726-21.7993 77.3751-23.6972 76.0207-25.1495 74.6664-26.6018 72.7186-27.328 70.1772-27.328 68.6452-27.328 67.1282-27.0032 65.6262-26.3535 64.1242-25.7038 62.4586-24.642 60.6292-23.168L57.3132-27.295C59.2752-29.2983 61.3636-30.754 63.5782-31.662 65.7929-32.57 68.1632-33.024 70.6892-33.024 75.0206-33.024 78.4074-31.7357 80.8497-29.159 83.2921-26.5823 84.5132-23.0707 84.5132-18.624ZM78.1132-14.208 69.7292-14.208C66.7279-14.208 64.5589-13.8262 63.2222-13.0625 61.8856-12.2988 61.2172-11.1233 61.2172-9.536 61.2172-8.16867 61.7996-7.02683 62.9642-6.1105 64.1289-5.19417 65.6586-4.736 67.5532-4.736 70.4466-4.736 72.8891-5.6715 74.8807-7.5425 76.8724-9.4135 77.9499-11.6353 78.1132-14.208ZM115.505-9.664C115.505-6.54467 114.198-4.0155 111.582-2.0765 108.967-0.1375 105.603 0.832 101.489 0.832 98.7948 0.832 96.2738 0.404167 93.9265-0.4515 91.5792-1.30717 89.3855-2.71633 87.3455-4.679L90.5315-9.408C92.8268-7.67733 94.7887-6.466 96.417-5.774 98.0453-5.082 99.7788-4.736 101.617-4.736 103.953-4.736 105.807-5.17033 107.177-6.039 108.548-6.90767 109.233-8.00933 109.233-9.344 109.233-10.664 108.669-11.6345 107.54-12.2555 106.411-12.8765 104.427-13.2073 101.587-13.248 97.1402-13.424 93.8573-14.2638 91.739-15.7675 89.6207-17.2712 88.5615-19.6313 88.5615-22.848 88.5615-25.7513 89.7692-28.1625 92.1845-30.0815 94.5998-32.0005 97.6802-32.96 101.425-32.96 103.931-32.96 106.288-32.5623 108.497-31.767 110.706-30.9717 112.786-29.6927 114.737-27.93L111.748-23.296C109.681-24.7547 107.869-25.7913 106.311-26.406 104.753-27.0207 103.103-27.328 101.361-27.328 99.4055-27.328 97.8285-26.9097 96.6305-26.073 95.4325-25.2363 94.8335-24.2467 94.8335-23.104 94.8335-21.8147 95.3572-20.8708 96.4045-20.2725 97.4518-19.6742 99.2295-19.3133 101.737-19.19 106.5-19.0587 109.985-18.2417 112.193-16.739 114.401-15.2363 115.505-12.878 115.505-9.664ZM120.849-8.896 120.849-26.304 116.625-26.304 116.625-32.128 120.849-32.128 120.849-41.6 127.313-41.6 127.313-32.128 134.481-32.128 134.481-26.304 127.313-26.304 127.313-9.344C127.313-8.10867 127.563-7.22383 128.063-6.6895 128.562-6.15517 129.358-5.888 130.449-5.888L134.481-5.888 134.481 0 129.681 0C126.64 0 124.408-0.7235 122.985-2.1705 121.561-3.6175 120.849-5.85933 120.849-8.896ZM138.347-42.496 145.387-42.496 145.387-35.584 138.347-35.584ZM138.603 0 138.603-32.128 145.131-32.128 145.131 0ZM166.436 0.96C161.518 0.96 157.516-0.606 154.428-3.738 151.34-6.87 149.796-10.9573 149.796-16 149.796-20.7507 151.413-24.765 154.647-28.043 157.881-31.321 161.854-32.96 166.564-32.96 169.975-32.96 172.901-32.1652 175.341-30.5755 177.782-28.9858 179.635-26.538 180.9-23.232L175.526-20.8C174.413-23.0733 173.129-24.7083 171.674-25.705 170.219-26.7017 168.494-27.2 166.5-27.2 163.658-27.2 161.262-26.1248 159.312-23.9745 157.363-21.8242 156.388-19.166 156.388-16 156.388-12.7647 157.366-10.0892 159.32-7.9735 161.274-5.85783 163.71-4.8 166.628-4.8 168.496-4.8 170.244-5.3125 171.872-6.3375 173.5-7.3625 174.925-8.94067 176.146-11.072L181.092-8.485C179.756-5.387 177.799-3.03833 175.222-1.439 172.646 0.160333 169.717 0.96 166.436 0.96Z" transform="matrix(1 0 0 1 58.3586 94)"/></g></g></g><rect x="2663" y="1018" width="601" height="370" stroke="#000000" stroke-width="13.75" stroke-miterlimit="8" fill="#F2F2F2"/><text font-family="IntelOne Display AR Regular,IntelOne Display AR Regular_MSFontService,sans-serif" font-weight="700" font-size="64" transform="matrix(1 0 0 1 2872.64 1257)">Plastic</text><rect x="2662" y="1017" width="601" height="93.9998" stroke="#000000" stroke-width="10.3125" stroke-miterlimit="8" fill="#595959"/><text fill="#FFFFFF" font-family="IntelOne Display AR Regular,IntelOne Display AR Regular_MSFontService,sans-serif" font-weight="700" font-size="64" transform="matrix(1 0 0 1 2751.16 1087)">LearningDense</text><g clip-path="url(#clip30)"><g clip-path="url(#clip31)" filter="url(#fx6)" transform="translate(1858 1001)"><g clip-path="url(#clip32)"><rect x="26.7229" y="26.7225" width="601" height="370" stroke="#000000" stroke-width="14" stroke-miterlimit="8" fill="#F2F2F2"/></g></g><g clip-path="url(#clip33)" filter="url(#fx7)" transform="translate(2079 1173)"><g clip-path="url(#clip34)"><path d="M4.16 0 4.16-46.016 24.256-46.016C29.3247-46.016 33.3438-44.7322 36.3135-42.1645 39.2832-39.5968 40.768-36.1447 40.768-31.808 40.768-27.3827 39.1638-23.8443 35.9555-21.193 32.7472-18.5417 28.506-17.216 23.232-17.216L10.944-17.216 10.944 0ZM33.856-31.68C33.856-34.2087 33.0047-36.1955 31.302-37.6405 29.5993-39.0855 27.1867-39.808 24.064-39.808L10.944-39.808 10.944-23.36 23.616-23.36C26.7813-23.36 29.2793-24.1063 31.11-25.599 32.9407-27.0917 33.856-29.1187 33.856-31.68ZM43.4962-32.128 49.8962-32.128 49.8962-28.288C50.1075-29.5193 51.0098-30.4992 52.6032-31.2275 54.1965-31.9558 56.0675-32.32 58.2162-32.32L61.6722-32.32 61.6722-26.176 58.1522-26.176C55.3935-26.176 53.3385-25.471 51.9872-24.061 50.6358-22.651 49.9602-20.476 49.9602-17.536L49.9602 0 43.4962 0ZM79.6732-4.672C81.6105-4.672 83.3982-5.08667 85.0362-5.916 86.6742-6.74533 88.3392-8.12267 90.0312-10.048L93.8812-6.579C91.9758-3.89767 89.8063-1.97083 87.3727-0.7985 84.939 0.373833 82.2232 0.96 79.2252 0.96 74.3912 0.96 70.4307-0.628 67.3437-3.804 64.2567-6.98 62.7132-11.0453 62.7132-16 62.7132-20.7913 64.287-24.8052 67.4347-28.0415 70.5823-31.2778 74.4698-32.896 79.0972-32.896 83.8118-32.896 87.6358-31.3627 90.5692-28.296 93.5025-25.2293 94.9692-21.2587 94.9692-16.384 94.9692-16.2933 94.9557-16.0323 94.9287-15.601 94.9017-15.1697 94.8222-14.492 94.6902-13.568L69.3692-13.568C69.6885-11.1393 70.8042-9.0495 72.7162-7.2985 74.6282-5.5475 76.9472-4.672 79.6732-4.672ZM79.1612-27.264C76.6425-27.264 74.4803-26.4413 72.6747-24.796 70.869-23.1507 69.7672-21.1573 69.3692-18.816L88.4412-18.816C88.0765-21.2087 87.0543-23.2148 85.3747-24.8345 83.695-26.4542 81.6238-27.264 79.1612-27.264Z" transform="matrix(1 0 0 1 58.7969 94)"/></g></g></g><rect x="1875" y="1018" width="601" height="370" stroke="#000000" stroke-width="13.75" stroke-miterlimit="8" fill="#F2F2F2"/><text font-family="IntelOne Display AR Regular,IntelOne Display AR Regular_MSFontService,sans-serif" font-weight="700" font-size="64" transform="matrix(1 0 0 1 2128.07 1257)">Pre</text><rect x="2445" y="1202" width="65" height="58.9998" fill="#7030A0"/><rect x="1876" y="1017" width="600" height="93.9998" stroke="#000000" stroke-width="10.3125" stroke-miterlimit="8" fill="#595959"/><text fill="#FFFFFF" font-family="IntelOne Display AR Regular,IntelOne Display AR Regular_MSFontService,sans-serif" font-weight="700" font-size="64" transform="matrix(1 0 0 1 2131.88 1087)">LIF</text><path d="M1.53293e-05-5.15625 95.6104-5.15597 95.6103 5.15653-1.53293e-05 5.15625ZM90.4541-15.4685 121.392 0.000360892 90.454 15.469Z" fill="#00B050" transform="matrix(1 0 0 -1 2510 1231)"/><rect x="2631" y="1202" width="65" height="58.9998" fill="#00B050"/><rect x="1655" y="1202" width="65" height="58.9998" fill="#7030A0"/><path d="M1.5182e-05-5.15625 96.7886-5.15596 96.7886 5.15654-1.5182e-05 5.15625ZM91.6324-15.4685 122.57 0.000360892 91.6323 15.469Z" fill="#00B050" transform="matrix(1 0 0 -1 1720 1231)"/><rect x="1843" y="1202" width="64.0002" height="58.9998" fill="#00B050"/><g clip-path="url(#clip35)"><g clip-path="url(#clip36)" filter="url(#fx8)" transform="translate(3432 1002)"><g clip-path="url(#clip37)"><rect x="26.7227" y="26.7225" width="601" height="370" stroke="#000000" stroke-width="14" stroke-miterlimit="8" fill="#F2F2F2"/></g></g><g clip-path="url(#clip38)" filter="url(#fx9)" transform="translate(3639 1174)"><g clip-path="url(#clip39)"><path d="M4.16 0 4.16-46.016 24.256-46.016C29.3247-46.016 33.3438-44.7322 36.3135-42.1645 39.2832-39.5968 40.768-36.1447 40.768-31.808 40.768-27.3827 39.1638-23.8443 35.9555-21.193 32.7472-18.5417 28.506-17.216 23.232-17.216L10.944-17.216 10.944 0ZM33.856-31.68C33.856-34.2087 33.0047-36.1955 31.302-37.6405 29.5993-39.0855 27.1867-39.808 24.064-39.808L10.944-39.808 10.944-23.36 23.616-23.36C26.7813-23.36 29.2793-24.1063 31.11-25.599 32.9407-27.0917 33.856-29.1187 33.856-31.68ZM75.5602-16.064C75.5602-11.234 73.9413-7.18917 70.7037-3.9295 67.466-0.669833 63.4742 0.96 58.7282 0.96 53.9802 0.96 50.0198-0.659667 46.8472-3.899 43.6745-7.13833 42.0882-11.172 42.0882-16 42.0882-20.8 43.7038-24.8267 46.9352-28.08 50.1665-31.3333 54.1615-32.96 58.9202-32.96 63.6682-32.96 67.6285-31.3403 70.8012-28.101 73.9738-24.8617 75.5602-20.8493 75.5602-16.064ZM48.6802-16C48.6802-12.806 49.6577-10.1408 51.6127-8.0045 53.5677-5.86817 55.9822-4.8 58.8562-4.8 61.6808-4.8 64.0723-5.87 66.0307-8.01 67.989-10.15 68.9682-12.8347 68.9682-16.064 68.9682-19.1727 67.98-21.8058 66.0037-23.9635 64.0273-26.1212 61.6235-27.2 58.7922-27.2 55.9542-27.2 53.5593-26.1335 51.6077-24.0005 49.656-21.8675 48.6802-19.2007 48.6802-16ZM105.193-9.664C105.193-6.54467 103.885-4.0155 101.27-2.0765 98.6547-0.1375 95.2903 0.832 91.177 0.832 88.4823 0.832 85.9613 0.404167 83.614-0.4515 81.2667-1.30717 79.073-2.71633 77.033-4.679L80.219-9.408C82.5143-7.67733 84.4762-6.466 86.1045-5.774 87.7328-5.082 89.4663-4.736 91.305-4.736 93.641-4.736 95.4943-5.17033 96.865-6.039 98.2357-6.90767 98.921-8.00933 98.921-9.344 98.921-10.664 98.3565-11.6345 97.2275-12.2555 96.0985-12.8765 94.1143-13.2073 91.275-13.248 86.8277-13.424 83.5448-14.2638 81.4265-15.7675 79.3082-17.2712 78.249-19.6313 78.249-22.848 78.249-25.7513 79.4567-28.1625 81.872-30.0815 84.2873-32.0005 87.3677-32.96 91.113-32.96 93.6183-32.96 95.9755-32.5623 98.1845-31.767 100.393-30.9717 102.474-29.6927 104.425-27.93L101.436-23.296C99.3687-24.7547 97.5562-25.7913 95.9985-26.406 94.4408-27.0207 92.791-27.328 91.049-27.328 89.093-27.328 87.516-26.9097 86.318-26.073 85.12-25.2363 84.521-24.2467 84.521-23.104 84.521-21.8147 85.0447-20.8708 86.092-20.2725 87.1393-19.6742 88.917-19.3133 91.425-19.19 96.1877-19.0587 99.673-18.2417 101.881-16.739 104.089-15.2363 105.193-12.878 105.193-9.664ZM110.537-8.896 110.537-26.304 106.313-26.304 106.313-32.128 110.537-32.128 110.537-41.6 117.001-41.6 117.001-32.128 124.169-32.128 124.169-26.304 117.001-26.304 117.001-9.344C117.001-8.10867 117.25-7.22383 117.75-6.6895 118.25-6.15517 119.045-5.888 120.137-5.888L124.169-5.888 124.169 0 119.369 0C116.328 0 114.096-0.7235 112.672-2.1705 111.248-3.6175 110.537-5.85933 110.537-8.896Z" transform="matrix(1 0 0 1 58.0698 94)"/></g></g></g><rect x="3449" y="1019" width="601" height="370" stroke="#000000" stroke-width="13.75" stroke-miterlimit="8" fill="#F2F2F2"/><text font-family="IntelOne Display AR Regular,IntelOne Display AR Regular_MSFontService,sans-serif" font-weight="700" font-size="64" transform="matrix(1 0 0 1 3687.35 1258)">Post</text><rect x="3449" y="1018" width="600" height="94.0002" stroke="#000000" stroke-width="10.3125" stroke-miterlimit="8" fill="#595959"/><text fill="#FFFFFF" font-family="IntelOne Display AR Regular,IntelOne Display AR Regular_MSFontService,sans-serif" font-weight="700" font-size="64" transform="matrix(1 0 0 1 3583.06 1088)">LearningLIF</text><rect x="3231" y="1202" width="65" height="58.9998" fill="#7030A0"/><path d="M3296.04 1225.84 3391.42 1226.55 3391.35 1236.87 3295.96 1236.16ZM3386.34 1216.2 3417.17 1231.9 3386.11 1247.14Z" fill="#00B050"/><rect x="3417" y="1203" width="65" height="58.9998" fill="#00B050"/><text font-family="IntelOne Display AR Regular,IntelOne Display AR Regular_MSFontService,sans-serif" font-weight="400" font-size="64" transform="matrix(1 0 0 1 412.288 806)">Binary Spike Input Generator with Dense <tspan font-size="64" x="382.433" y="77">Connections</tspan><tspan font-size="64" x="1534.6" y="0">Pre</tspan><tspan font-size="64" x="1631.43" y="0">-</tspan>synaptic LIF <tspan font-size="64" x="1656.34" y="77">Neuron</tspan><tspan font-size="64" x="3102.16" y="0">Post</tspan><tspan font-size="64" x="3228.78" y="0">-</tspan>synaptic LIF <tspan font-size="64" x="3238.79" y="77">Neuron</tspan><tspan font-size="64" x="2306.09" y="0">Learnable weights </tspan><tspan font-size="64" x="2283.74" y="77">modified with STDP</tspan></text></g></svg>